<mxfile host="app.diagrams.net" agent="Mozilla/5.0 (Windows NT 10.0; Win64; x64) AppleWebKit/537.36 (KHTML, like Gecko) Chrome/130.0.0.0 YaBrowser/24.12.0.0 Safari/537.36" version="24.7.16">
  <diagram id="C5RBs43oDa-KdzZeNtuy" name="Page-1">
    <mxGraphModel dx="1733" dy="989" grid="1" gridSize="10" guides="1" tooltips="1" connect="1" arrows="1" fold="1" page="1" pageScale="1" pageWidth="3300" pageHeight="4681" math="0" shadow="0">
      <root>
        <mxCell id="WIyWlLk6GJQsqaUBKTNV-0" />
        <mxCell id="WIyWlLk6GJQsqaUBKTNV-1" parent="WIyWlLk6GJQsqaUBKTNV-0" />
        <mxCell id="zkfFHV4jXpPFQw0GAbJ--0" value="Item" style="swimlane;fontStyle=1;align=center;verticalAlign=top;childLayout=stackLayout;horizontal=1;startSize=26;horizontalStack=0;resizeParent=1;resizeLast=0;collapsible=1;marginBottom=0;rounded=0;shadow=0;strokeWidth=1;" parent="WIyWlLk6GJQsqaUBKTNV-1" vertex="1">
          <mxGeometry x="90" y="120" width="290" height="422" as="geometry">
            <mxRectangle x="230" y="140" width="160" height="26" as="alternateBounds" />
          </mxGeometry>
        </mxCell>
        <mxCell id="zkfFHV4jXpPFQw0GAbJ--1" value="-_id: int" style="text;align=left;verticalAlign=top;spacingLeft=4;spacingRight=4;overflow=hidden;rotatable=0;points=[[0,0.5],[1,0.5]];portConstraint=eastwest;" parent="zkfFHV4jXpPFQw0GAbJ--0" vertex="1">
          <mxGeometry y="26" width="290" height="26" as="geometry" />
        </mxCell>
        <mxCell id="zkfFHV4jXpPFQw0GAbJ--2" value="-_name: string" style="text;align=left;verticalAlign=top;spacingLeft=4;spacingRight=4;overflow=hidden;rotatable=0;points=[[0,0.5],[1,0.5]];portConstraint=eastwest;rounded=0;shadow=0;html=0;" parent="zkfFHV4jXpPFQw0GAbJ--0" vertex="1">
          <mxGeometry y="52" width="290" height="26" as="geometry" />
        </mxCell>
        <mxCell id="zkfFHV4jXpPFQw0GAbJ--3" value="-_info: string" style="text;align=left;verticalAlign=top;spacingLeft=4;spacingRight=4;overflow=hidden;rotatable=0;points=[[0,0.5],[1,0.5]];portConstraint=eastwest;rounded=0;shadow=0;html=0;" parent="zkfFHV4jXpPFQw0GAbJ--0" vertex="1">
          <mxGeometry y="78" width="290" height="22" as="geometry" />
        </mxCell>
        <mxCell id="6E5svNrZPo0bOCiPC75M-1" value="-_cost: double" style="text;strokeColor=none;fillColor=none;align=left;verticalAlign=top;spacingLeft=4;spacingRight=4;overflow=hidden;rotatable=0;points=[[0,0.5],[1,0.5]];portConstraint=eastwest;whiteSpace=wrap;html=1;" vertex="1" parent="zkfFHV4jXpPFQw0GAbJ--0">
          <mxGeometry y="100" width="290" height="26" as="geometry" />
        </mxCell>
        <mxCell id="zkfFHV4jXpPFQw0GAbJ--4" value="" style="line;html=1;strokeWidth=1;align=left;verticalAlign=middle;spacingTop=-1;spacingLeft=3;spacingRight=3;rotatable=0;labelPosition=right;points=[];portConstraint=eastwest;" parent="zkfFHV4jXpPFQw0GAbJ--0" vertex="1">
          <mxGeometry y="126" width="290" height="10" as="geometry" />
        </mxCell>
        <mxCell id="zkfFHV4jXpPFQw0GAbJ--5" value="+ Id { get; }(): int" style="text;align=left;verticalAlign=top;spacingLeft=4;spacingRight=4;overflow=hidden;rotatable=0;points=[[0,0.5],[1,0.5]];portConstraint=eastwest;" parent="zkfFHV4jXpPFQw0GAbJ--0" vertex="1">
          <mxGeometry y="136" width="290" height="26" as="geometry" />
        </mxCell>
        <mxCell id="6E5svNrZPo0bOCiPC75M-3" value="+ Name { get; set; }(): string" style="text;strokeColor=none;fillColor=none;align=left;verticalAlign=top;spacingLeft=4;spacingRight=4;overflow=hidden;rotatable=0;points=[[0,0.5],[1,0.5]];portConstraint=eastwest;whiteSpace=wrap;html=1;" vertex="1" parent="zkfFHV4jXpPFQw0GAbJ--0">
          <mxGeometry y="162" width="290" height="26" as="geometry" />
        </mxCell>
        <mxCell id="6E5svNrZPo0bOCiPC75M-4" value="+ Info { get; set; }(): string" style="text;strokeColor=none;fillColor=none;align=left;verticalAlign=top;spacingLeft=4;spacingRight=4;overflow=hidden;rotatable=0;points=[[0,0.5],[1,0.5]];portConstraint=eastwest;whiteSpace=wrap;html=1;" vertex="1" parent="zkfFHV4jXpPFQw0GAbJ--0">
          <mxGeometry y="188" width="290" height="26" as="geometry" />
        </mxCell>
        <mxCell id="6E5svNrZPo0bOCiPC75M-5" value="+ Cost { get; set; }(): double" style="text;strokeColor=none;fillColor=none;align=left;verticalAlign=top;spacingLeft=4;spacingRight=4;overflow=hidden;rotatable=0;points=[[0,0.5],[1,0.5]];portConstraint=eastwest;whiteSpace=wrap;html=1;" vertex="1" parent="zkfFHV4jXpPFQw0GAbJ--0">
          <mxGeometry y="214" width="290" height="26" as="geometry" />
        </mxCell>
        <mxCell id="6E5svNrZPo0bOCiPC75M-6" value="+ Category { get; set; }(): Category" style="text;strokeColor=none;fillColor=none;align=left;verticalAlign=top;spacingLeft=4;spacingRight=4;overflow=hidden;rotatable=0;points=[[0,0.5],[1,0.5]];portConstraint=eastwest;whiteSpace=wrap;html=1;" vertex="1" parent="zkfFHV4jXpPFQw0GAbJ--0">
          <mxGeometry y="240" width="290" height="26" as="geometry" />
        </mxCell>
        <mxCell id="6E5svNrZPo0bOCiPC75M-7" value="+ Item(int, string, Category, string, double): void" style="text;strokeColor=none;fillColor=none;align=left;verticalAlign=top;spacingLeft=4;spacingRight=4;overflow=hidden;rotatable=0;points=[[0,0.5],[1,0.5]];portConstraint=eastwest;whiteSpace=wrap;html=1;" vertex="1" parent="zkfFHV4jXpPFQw0GAbJ--0">
          <mxGeometry y="266" width="290" height="26" as="geometry" />
        </mxCell>
        <mxCell id="6E5svNrZPo0bOCiPC75M-8" value="+ Item(string, Category, string, double): void" style="text;strokeColor=none;fillColor=none;align=left;verticalAlign=top;spacingLeft=4;spacingRight=4;overflow=hidden;rotatable=0;points=[[0,0.5],[1,0.5]];portConstraint=eastwest;whiteSpace=wrap;html=1;" vertex="1" parent="zkfFHV4jXpPFQw0GAbJ--0">
          <mxGeometry y="292" width="290" height="26" as="geometry" />
        </mxCell>
        <mxCell id="6E5svNrZPo0bOCiPC75M-9" value="+ Item(): void" style="text;strokeColor=none;fillColor=none;align=left;verticalAlign=top;spacingLeft=4;spacingRight=4;overflow=hidden;rotatable=0;points=[[0,0.5],[1,0.5]];portConstraint=eastwest;whiteSpace=wrap;html=1;" vertex="1" parent="zkfFHV4jXpPFQw0GAbJ--0">
          <mxGeometry y="318" width="290" height="26" as="geometry" />
        </mxCell>
        <mxCell id="6E5svNrZPo0bOCiPC75M-10" value="+ Clone(): object" style="text;strokeColor=none;fillColor=none;align=left;verticalAlign=top;spacingLeft=4;spacingRight=4;overflow=hidden;rotatable=0;points=[[0,0.5],[1,0.5]];portConstraint=eastwest;whiteSpace=wrap;html=1;" vertex="1" parent="zkfFHV4jXpPFQw0GAbJ--0">
          <mxGeometry y="344" width="290" height="26" as="geometry" />
        </mxCell>
        <mxCell id="6E5svNrZPo0bOCiPC75M-11" value="+ Equals(Item): bool" style="text;strokeColor=none;fillColor=none;align=left;verticalAlign=top;spacingLeft=4;spacingRight=4;overflow=hidden;rotatable=0;points=[[0,0.5],[1,0.5]];portConstraint=eastwest;whiteSpace=wrap;html=1;" vertex="1" parent="zkfFHV4jXpPFQw0GAbJ--0">
          <mxGeometry y="370" width="290" height="26" as="geometry" />
        </mxCell>
        <mxCell id="6E5svNrZPo0bOCiPC75M-12" value="+ CompareTo(Item): int" style="text;strokeColor=none;fillColor=none;align=left;verticalAlign=top;spacingLeft=4;spacingRight=4;overflow=hidden;rotatable=0;points=[[0,0.5],[1,0.5]];portConstraint=eastwest;whiteSpace=wrap;html=1;" vertex="1" parent="zkfFHV4jXpPFQw0GAbJ--0">
          <mxGeometry y="396" width="290" height="26" as="geometry" />
        </mxCell>
        <mxCell id="6E5svNrZPo0bOCiPC75M-13" value="Customer" style="swimlane;fontStyle=1;align=center;verticalAlign=top;childLayout=stackLayout;horizontal=1;startSize=26;horizontalStack=0;resizeParent=1;resizeLast=0;collapsible=1;marginBottom=0;rounded=0;shadow=0;strokeWidth=1;" vertex="1" parent="WIyWlLk6GJQsqaUBKTNV-1">
          <mxGeometry x="500" y="120" width="370" height="450" as="geometry">
            <mxRectangle x="230" y="140" width="160" height="26" as="alternateBounds" />
          </mxGeometry>
        </mxCell>
        <mxCell id="6E5svNrZPo0bOCiPC75M-14" value="-_id: int" style="text;align=left;verticalAlign=top;spacingLeft=4;spacingRight=4;overflow=hidden;rotatable=0;points=[[0,0.5],[1,0.5]];portConstraint=eastwest;" vertex="1" parent="6E5svNrZPo0bOCiPC75M-13">
          <mxGeometry y="26" width="370" height="26" as="geometry" />
        </mxCell>
        <mxCell id="6E5svNrZPo0bOCiPC75M-15" value="-_fullName: string" style="text;align=left;verticalAlign=top;spacingLeft=4;spacingRight=4;overflow=hidden;rotatable=0;points=[[0,0.5],[1,0.5]];portConstraint=eastwest;rounded=0;shadow=0;html=0;" vertex="1" parent="6E5svNrZPo0bOCiPC75M-13">
          <mxGeometry y="52" width="370" height="26" as="geometry" />
        </mxCell>
        <mxCell id="6E5svNrZPo0bOCiPC75M-16" value="-_address: Address   " style="text;align=left;verticalAlign=top;spacingLeft=4;spacingRight=4;overflow=hidden;rotatable=0;points=[[0,0.5],[1,0.5]];portConstraint=eastwest;rounded=0;shadow=0;html=0;" vertex="1" parent="6E5svNrZPo0bOCiPC75M-13">
          <mxGeometry y="78" width="370" height="22" as="geometry" />
        </mxCell>
        <mxCell id="6E5svNrZPo0bOCiPC75M-17" value="-_cart: Cart" style="text;strokeColor=none;fillColor=none;align=left;verticalAlign=top;spacingLeft=4;spacingRight=4;overflow=hidden;rotatable=0;points=[[0,0.5],[1,0.5]];portConstraint=eastwest;whiteSpace=wrap;html=1;" vertex="1" parent="6E5svNrZPo0bOCiPC75M-13">
          <mxGeometry y="100" width="370" height="26" as="geometry" />
        </mxCell>
        <mxCell id="6E5svNrZPo0bOCiPC75M-30" value="-_orders: List&amp;lt;Order&amp;gt;" style="text;strokeColor=none;fillColor=none;align=left;verticalAlign=top;spacingLeft=4;spacingRight=4;overflow=hidden;rotatable=0;points=[[0,0.5],[1,0.5]];portConstraint=eastwest;whiteSpace=wrap;html=1;" vertex="1" parent="6E5svNrZPo0bOCiPC75M-13">
          <mxGeometry y="126" width="370" height="26" as="geometry" />
        </mxCell>
        <mxCell id="6E5svNrZPo0bOCiPC75M-31" value="-_isPriority: bool" style="text;strokeColor=none;fillColor=none;align=left;verticalAlign=top;spacingLeft=4;spacingRight=4;overflow=hidden;rotatable=0;points=[[0,0.5],[1,0.5]];portConstraint=eastwest;whiteSpace=wrap;html=1;" vertex="1" parent="6E5svNrZPo0bOCiPC75M-13">
          <mxGeometry y="152" width="370" height="26" as="geometry" />
        </mxCell>
        <mxCell id="6E5svNrZPo0bOCiPC75M-18" value="" style="line;html=1;strokeWidth=1;align=left;verticalAlign=middle;spacingTop=-1;spacingLeft=3;spacingRight=3;rotatable=0;labelPosition=right;points=[];portConstraint=eastwest;" vertex="1" parent="6E5svNrZPo0bOCiPC75M-13">
          <mxGeometry y="178" width="370" height="10" as="geometry" />
        </mxCell>
        <mxCell id="6E5svNrZPo0bOCiPC75M-19" value="+ Id { get; }(): int" style="text;align=left;verticalAlign=top;spacingLeft=4;spacingRight=4;overflow=hidden;rotatable=0;points=[[0,0.5],[1,0.5]];portConstraint=eastwest;" vertex="1" parent="6E5svNrZPo0bOCiPC75M-13">
          <mxGeometry y="188" width="370" height="26" as="geometry" />
        </mxCell>
        <mxCell id="6E5svNrZPo0bOCiPC75M-20" value="+ FullName { get; set; }(): string" style="text;strokeColor=none;fillColor=none;align=left;verticalAlign=top;spacingLeft=4;spacingRight=4;overflow=hidden;rotatable=0;points=[[0,0.5],[1,0.5]];portConstraint=eastwest;whiteSpace=wrap;html=1;" vertex="1" parent="6E5svNrZPo0bOCiPC75M-13">
          <mxGeometry y="214" width="370" height="26" as="geometry" />
        </mxCell>
        <mxCell id="6E5svNrZPo0bOCiPC75M-21" value="+ Address { get; set; }(): Address" style="text;strokeColor=none;fillColor=none;align=left;verticalAlign=top;spacingLeft=4;spacingRight=4;overflow=hidden;rotatable=0;points=[[0,0.5],[1,0.5]];portConstraint=eastwest;whiteSpace=wrap;html=1;" vertex="1" parent="6E5svNrZPo0bOCiPC75M-13">
          <mxGeometry y="240" width="370" height="26" as="geometry" />
        </mxCell>
        <mxCell id="6E5svNrZPo0bOCiPC75M-22" value="+ Cart { get; set; }(): Cart" style="text;strokeColor=none;fillColor=none;align=left;verticalAlign=top;spacingLeft=4;spacingRight=4;overflow=hidden;rotatable=0;points=[[0,0.5],[1,0.5]];portConstraint=eastwest;whiteSpace=wrap;html=1;" vertex="1" parent="6E5svNrZPo0bOCiPC75M-13">
          <mxGeometry y="266" width="370" height="26" as="geometry" />
        </mxCell>
        <mxCell id="6E5svNrZPo0bOCiPC75M-23" value="+ Orders { get; set; }(): List&amp;lt;Order&amp;gt;" style="text;strokeColor=none;fillColor=none;align=left;verticalAlign=top;spacingLeft=4;spacingRight=4;overflow=hidden;rotatable=0;points=[[0,0.5],[1,0.5]];portConstraint=eastwest;whiteSpace=wrap;html=1;" vertex="1" parent="6E5svNrZPo0bOCiPC75M-13">
          <mxGeometry y="292" width="370" height="26" as="geometry" />
        </mxCell>
        <mxCell id="6E5svNrZPo0bOCiPC75M-32" value="+ IsPriority { get; set; }(): bool" style="text;strokeColor=none;fillColor=none;align=left;verticalAlign=top;spacingLeft=4;spacingRight=4;overflow=hidden;rotatable=0;points=[[0,0.5],[1,0.5]];portConstraint=eastwest;whiteSpace=wrap;html=1;" vertex="1" parent="6E5svNrZPo0bOCiPC75M-13">
          <mxGeometry y="318" width="370" height="26" as="geometry" />
        </mxCell>
        <mxCell id="6E5svNrZPo0bOCiPC75M-33" value="+ Discounts { get; set; }(): List&amp;lt;IDiscount&amp;gt;" style="text;strokeColor=none;fillColor=none;align=left;verticalAlign=top;spacingLeft=4;spacingRight=4;overflow=hidden;rotatable=0;points=[[0,0.5],[1,0.5]];portConstraint=eastwest;whiteSpace=wrap;html=1;" vertex="1" parent="6E5svNrZPo0bOCiPC75M-13">
          <mxGeometry y="344" width="370" height="26" as="geometry" />
        </mxCell>
        <mxCell id="6E5svNrZPo0bOCiPC75M-24" value="+ Customer(string, int, string, string, string, string, string): void" style="text;strokeColor=none;fillColor=none;align=left;verticalAlign=top;spacingLeft=4;spacingRight=4;overflow=hidden;rotatable=0;points=[[0,0.5],[1,0.5]];portConstraint=eastwest;whiteSpace=wrap;html=1;" vertex="1" parent="6E5svNrZPo0bOCiPC75M-13">
          <mxGeometry y="370" width="370" height="26" as="geometry" />
        </mxCell>
        <mxCell id="6E5svNrZPo0bOCiPC75M-34" value="+ Customer(int, string, int, string, string, string, string, string): void" style="text;strokeColor=none;fillColor=none;align=left;verticalAlign=top;spacingLeft=4;spacingRight=4;overflow=hidden;rotatable=0;points=[[0,0.5],[1,0.5]];portConstraint=eastwest;whiteSpace=wrap;html=1;" vertex="1" parent="6E5svNrZPo0bOCiPC75M-13">
          <mxGeometry y="396" width="370" height="26" as="geometry" />
        </mxCell>
        <mxCell id="6E5svNrZPo0bOCiPC75M-26" value="+ Customer(): void" style="text;strokeColor=none;fillColor=none;align=left;verticalAlign=top;spacingLeft=4;spacingRight=4;overflow=hidden;rotatable=0;points=[[0,0.5],[1,0.5]];portConstraint=eastwest;whiteSpace=wrap;html=1;" vertex="1" parent="6E5svNrZPo0bOCiPC75M-13">
          <mxGeometry y="422" width="370" height="26" as="geometry" />
        </mxCell>
        <mxCell id="6E5svNrZPo0bOCiPC75M-36" value="Store" style="swimlane;fontStyle=1;align=center;verticalAlign=top;childLayout=stackLayout;horizontal=1;startSize=26;horizontalStack=0;resizeParent=1;resizeLast=0;collapsible=1;marginBottom=0;rounded=0;shadow=0;strokeWidth=1;" vertex="1" parent="WIyWlLk6GJQsqaUBKTNV-1">
          <mxGeometry x="240" y="630" width="250" height="170" as="geometry">
            <mxRectangle x="230" y="140" width="160" height="26" as="alternateBounds" />
          </mxGeometry>
        </mxCell>
        <mxCell id="6E5svNrZPo0bOCiPC75M-37" value="-_items: List&lt;Item&gt;" style="text;align=left;verticalAlign=top;spacingLeft=4;spacingRight=4;overflow=hidden;rotatable=0;points=[[0,0.5],[1,0.5]];portConstraint=eastwest;" vertex="1" parent="6E5svNrZPo0bOCiPC75M-36">
          <mxGeometry y="26" width="250" height="26" as="geometry" />
        </mxCell>
        <mxCell id="6E5svNrZPo0bOCiPC75M-38" value="-_customers: List&lt;Customer&gt;" style="text;align=left;verticalAlign=top;spacingLeft=4;spacingRight=4;overflow=hidden;rotatable=0;points=[[0,0.5],[1,0.5]];portConstraint=eastwest;rounded=0;shadow=0;html=0;" vertex="1" parent="6E5svNrZPo0bOCiPC75M-36">
          <mxGeometry y="52" width="250" height="26" as="geometry" />
        </mxCell>
        <mxCell id="6E5svNrZPo0bOCiPC75M-43" value="" style="line;html=1;strokeWidth=1;align=left;verticalAlign=middle;spacingTop=-1;spacingLeft=3;spacingRight=3;rotatable=0;labelPosition=right;points=[];portConstraint=eastwest;" vertex="1" parent="6E5svNrZPo0bOCiPC75M-36">
          <mxGeometry y="78" width="250" height="10" as="geometry" />
        </mxCell>
        <mxCell id="6E5svNrZPo0bOCiPC75M-44" value="+ Items { get; set; }(): List&lt;Item&gt;" style="text;align=left;verticalAlign=top;spacingLeft=4;spacingRight=4;overflow=hidden;rotatable=0;points=[[0,0.5],[1,0.5]];portConstraint=eastwest;" vertex="1" parent="6E5svNrZPo0bOCiPC75M-36">
          <mxGeometry y="88" width="250" height="26" as="geometry" />
        </mxCell>
        <mxCell id="6E5svNrZPo0bOCiPC75M-45" value="+ Customers { get; set; }(): List&amp;lt;Customer&amp;gt;" style="text;strokeColor=none;fillColor=none;align=left;verticalAlign=top;spacingLeft=4;spacingRight=4;overflow=hidden;rotatable=0;points=[[0,0.5],[1,0.5]];portConstraint=eastwest;whiteSpace=wrap;html=1;" vertex="1" parent="6E5svNrZPo0bOCiPC75M-36">
          <mxGeometry y="114" width="250" height="26" as="geometry" />
        </mxCell>
        <mxCell id="6E5svNrZPo0bOCiPC75M-53" value="+ Store&lt;span style=&quot;background-color: initial;&quot;&gt;(): void&lt;/span&gt;" style="text;strokeColor=none;fillColor=none;align=left;verticalAlign=top;spacingLeft=4;spacingRight=4;overflow=hidden;rotatable=0;points=[[0,0.5],[1,0.5]];portConstraint=eastwest;whiteSpace=wrap;html=1;" vertex="1" parent="6E5svNrZPo0bOCiPC75M-36">
          <mxGeometry y="140" width="250" height="26" as="geometry" />
        </mxCell>
        <mxCell id="6E5svNrZPo0bOCiPC75M-54" value="Cart" style="swimlane;fontStyle=1;align=center;verticalAlign=top;childLayout=stackLayout;horizontal=1;startSize=26;horizontalStack=0;resizeParent=1;resizeLast=0;collapsible=1;marginBottom=0;rounded=0;shadow=0;strokeWidth=1;" vertex="1" parent="WIyWlLk6GJQsqaUBKTNV-1">
          <mxGeometry x="560" y="630" width="250" height="140" as="geometry">
            <mxRectangle x="230" y="140" width="160" height="26" as="alternateBounds" />
          </mxGeometry>
        </mxCell>
        <mxCell id="6E5svNrZPo0bOCiPC75M-55" value="-_items: List&lt;Item&gt;" style="text;align=left;verticalAlign=top;spacingLeft=4;spacingRight=4;overflow=hidden;rotatable=0;points=[[0,0.5],[1,0.5]];portConstraint=eastwest;" vertex="1" parent="6E5svNrZPo0bOCiPC75M-54">
          <mxGeometry y="26" width="250" height="26" as="geometry" />
        </mxCell>
        <mxCell id="6E5svNrZPo0bOCiPC75M-57" value="" style="line;html=1;strokeWidth=1;align=left;verticalAlign=middle;spacingTop=-1;spacingLeft=3;spacingRight=3;rotatable=0;labelPosition=right;points=[];portConstraint=eastwest;" vertex="1" parent="6E5svNrZPo0bOCiPC75M-54">
          <mxGeometry y="52" width="250" height="10" as="geometry" />
        </mxCell>
        <mxCell id="6E5svNrZPo0bOCiPC75M-58" value="+ Items { get; set; }(): List&lt;Item&gt;" style="text;align=left;verticalAlign=top;spacingLeft=4;spacingRight=4;overflow=hidden;rotatable=0;points=[[0,0.5],[1,0.5]];portConstraint=eastwest;" vertex="1" parent="6E5svNrZPo0bOCiPC75M-54">
          <mxGeometry y="62" width="250" height="26" as="geometry" />
        </mxCell>
        <mxCell id="6E5svNrZPo0bOCiPC75M-59" value="+ Amount { get; }(): double" style="text;strokeColor=none;fillColor=none;align=left;verticalAlign=top;spacingLeft=4;spacingRight=4;overflow=hidden;rotatable=0;points=[[0,0.5],[1,0.5]];portConstraint=eastwest;whiteSpace=wrap;html=1;" vertex="1" parent="6E5svNrZPo0bOCiPC75M-54">
          <mxGeometry y="88" width="250" height="26" as="geometry" />
        </mxCell>
        <mxCell id="6E5svNrZPo0bOCiPC75M-60" value="+ Clone&lt;span style=&quot;background-color: initial;&quot;&gt;(): object&lt;/span&gt;" style="text;strokeColor=none;fillColor=none;align=left;verticalAlign=top;spacingLeft=4;spacingRight=4;overflow=hidden;rotatable=0;points=[[0,0.5],[1,0.5]];portConstraint=eastwest;whiteSpace=wrap;html=1;" vertex="1" parent="6E5svNrZPo0bOCiPC75M-54">
          <mxGeometry y="114" width="250" height="26" as="geometry" />
        </mxCell>
      </root>
    </mxGraphModel>
  </diagram>
</mxfile>
